<?xml version="1.0" encoding="UTF-8" standalone="no"?>
<!DOCTYPE svg PUBLIC "-//W3C//DTD SVG 1.1//EN"
 "http://www.w3.org/Graphics/SVG/1.1/DTD/svg11.dtd">
<!-- Generated by graphviz version 2.40.1 (20161225.0304)
 -->
<!-- Title: git_branch Pages: 1 -->
<svg width="73pt" height="260pt"
 viewBox="0.00 0.00 73.00 260.00" xmlns="http://www.w3.org/2000/svg" xmlns:xlink="http://www.w3.org/1999/xlink">
<g id="graph0" class="graph" transform="scale(1 1) rotate(0) translate(4 256)">
<title>git_branch</title>
<polygon fill="#ffffff" stroke="transparent" points="-4,4 -4,-256 69,-256 69,4 -4,4"/>
<!-- master -->
<g id="node1" class="node">
<title>master</title>
<polygon fill="#add8e6" stroke="#add8e6" points="65,-252 0,-252 0,-216 65,-216 65,-252"/>
<text text-anchor="middle" x="32.5" y="-230.3" font-family="Times,serif" font-size="14.00" fill="#000000">master</text>
</g>
<!-- c -->
<g id="node2" class="node">
<title>c</title>
<ellipse fill="#adff2f" stroke="#adff2f" cx="32.5" cy="-162" rx="27" ry="18"/>
<text text-anchor="middle" x="32.5" y="-158.3" font-family="Times,serif" font-size="14.00" fill="#000000">c</text>
</g>
<!-- master&#45;&gt;c -->
<g id="edge1" class="edge">
<title>master&#45;&gt;c</title>
<path fill="none" stroke="#000000" d="M32.5,-215.8314C32.5,-208.131 32.5,-198.9743 32.5,-190.4166"/>
<polygon fill="#000000" stroke="#000000" points="36.0001,-190.4132 32.5,-180.4133 29.0001,-190.4133 36.0001,-190.4132"/>
</g>
<!-- b -->
<g id="node3" class="node">
<title>b</title>
<ellipse fill="#adff2f" stroke="#adff2f" cx="32.5" cy="-90" rx="27" ry="18"/>
<text text-anchor="middle" x="32.5" y="-86.3" font-family="Times,serif" font-size="14.00" fill="#000000">b</text>
</g>
<!-- c&#45;&gt;b -->
<g id="edge2" class="edge">
<title>c&#45;&gt;b</title>
<path fill="none" stroke="#000000" d="M32.5,-143.8314C32.5,-136.131 32.5,-126.9743 32.5,-118.4166"/>
<polygon fill="#000000" stroke="#000000" points="36.0001,-118.4132 32.5,-108.4133 29.0001,-118.4133 36.0001,-118.4132"/>
</g>
<!-- a -->
<g id="node4" class="node">
<title>a</title>
<ellipse fill="#adff2f" stroke="#adff2f" cx="32.5" cy="-18" rx="27" ry="18"/>
<text text-anchor="middle" x="32.5" y="-14.3" font-family="Times,serif" font-size="14.00" fill="#000000">a</text>
</g>
<!-- b&#45;&gt;a -->
<g id="edge3" class="edge">
<title>b&#45;&gt;a</title>
<path fill="none" stroke="#000000" d="M32.5,-71.8314C32.5,-64.131 32.5,-54.9743 32.5,-46.4166"/>
<polygon fill="#000000" stroke="#000000" points="36.0001,-46.4132 32.5,-36.4133 29.0001,-46.4133 36.0001,-46.4132"/>
</g>
</g>
</svg>
