<?xml version="1.0" encoding="UTF-8" standalone="no"?>
<!DOCTYPE svg PUBLIC "-//W3C//DTD SVG 1.1//EN"
 "http://www.w3.org/Graphics/SVG/1.1/DTD/svg11.dtd">
<!-- Generated by graphviz version 2.40.1 (20161225.0304)
 -->
<!-- Title: git_branch_rebase Pages: 1 -->
<svg width="152pt" height="332pt"
 viewBox="0.00 0.00 151.50 332.00" xmlns="http://www.w3.org/2000/svg" xmlns:xlink="http://www.w3.org/1999/xlink">
<g id="graph0" class="graph" transform="scale(1 1) rotate(0) translate(4 328)">
<title>git_branch_rebase</title>
<polygon fill="#ffffff" stroke="transparent" points="-4,4 -4,-328 147.5,-328 147.5,4 -4,4"/>
<!-- master -->
<g id="node1" class="node">
<title>master</title>
<polygon fill="#add8e6" stroke="#add8e6" points="65,-252 0,-252 0,-216 65,-216 65,-252"/>
<text text-anchor="middle" x="32.5" y="-230.3" font-family="Times,serif" font-size="14.00" fill="#000000">master</text>
</g>
<!-- c -->
<g id="node2" class="node">
<title>c</title>
<ellipse fill="#adff2f" stroke="#adff2f" cx="71.5" cy="-162" rx="27" ry="18"/>
<text text-anchor="middle" x="71.5" y="-158.3" font-family="Times,serif" font-size="14.00" fill="#000000">c</text>
</g>
<!-- master&#45;&gt;c -->
<g id="edge1" class="edge">
<title>master&#45;&gt;c</title>
<path fill="none" stroke="#000000" d="M42.3413,-215.8314C46.8297,-207.5451 52.2315,-197.5727 57.1595,-188.4748"/>
<polygon fill="#000000" stroke="#000000" points="60.38,-189.8777 62.0654,-179.4177 54.225,-186.5436 60.38,-189.8777"/>
</g>
<!-- b -->
<g id="node3" class="node">
<title>b</title>
<ellipse fill="#adff2f" stroke="#adff2f" cx="71.5" cy="-90" rx="27" ry="18"/>
<text text-anchor="middle" x="71.5" y="-86.3" font-family="Times,serif" font-size="14.00" fill="#000000">b</text>
</g>
<!-- c&#45;&gt;b -->
<g id="edge2" class="edge">
<title>c&#45;&gt;b</title>
<path fill="none" stroke="#000000" d="M71.5,-143.8314C71.5,-136.131 71.5,-126.9743 71.5,-118.4166"/>
<polygon fill="#000000" stroke="#000000" points="75.0001,-118.4132 71.5,-108.4133 68.0001,-118.4133 75.0001,-118.4132"/>
</g>
<!-- a -->
<g id="node4" class="node">
<title>a</title>
<ellipse fill="#adff2f" stroke="#adff2f" cx="71.5" cy="-18" rx="27" ry="18"/>
<text text-anchor="middle" x="71.5" y="-14.3" font-family="Times,serif" font-size="14.00" fill="#000000">a</text>
</g>
<!-- b&#45;&gt;a -->
<g id="edge3" class="edge">
<title>b&#45;&gt;a</title>
<path fill="none" stroke="#000000" d="M71.5,-71.8314C71.5,-64.131 71.5,-54.9743 71.5,-46.4166"/>
<polygon fill="#000000" stroke="#000000" points="75.0001,-46.4132 71.5,-36.4133 68.0001,-46.4133 75.0001,-46.4132"/>
</g>
<!-- feature -->
<g id="node5" class="node">
<title>feature</title>
<polygon fill="#add8e6" stroke="#add8e6" points="143.5,-324 77.5,-324 77.5,-288 143.5,-288 143.5,-324"/>
<text text-anchor="middle" x="110.5" y="-302.3" font-family="Times,serif" font-size="14.00" fill="#000000">feature</text>
</g>
<!-- d&#39; -->
<g id="node6" class="node">
<title>d&#39;</title>
<ellipse fill="#adff2f" stroke="#adff2f" cx="110.5" cy="-234" rx="27" ry="18"/>
<text text-anchor="middle" x="110.5" y="-230.3" font-family="Times,serif" font-size="14.00" fill="#000000">d&#39;</text>
</g>
<!-- feature&#45;&gt;d&#39; -->
<g id="edge4" class="edge">
<title>feature&#45;&gt;d&#39;</title>
<path fill="none" stroke="#000000" d="M110.5,-287.8314C110.5,-280.131 110.5,-270.9743 110.5,-262.4166"/>
<polygon fill="#000000" stroke="#000000" points="114.0001,-262.4132 110.5,-252.4133 107.0001,-262.4133 114.0001,-262.4132"/>
</g>
<!-- d&#39;&#45;&gt;c -->
<g id="edge5" class="edge">
<title>d&#39;&#45;&gt;c</title>
<path fill="none" stroke="#000000" d="M101.2575,-216.937C96.5463,-208.2393 90.7183,-197.4799 85.4722,-187.7948"/>
<polygon fill="#000000" stroke="#000000" points="88.5165,-186.0664 80.6761,-178.9405 82.3615,-189.4005 88.5165,-186.0664"/>
</g>
</g>
</svg>
