<?xml version="1.0" encoding="UTF-8" standalone="no"?>
<!DOCTYPE svg PUBLIC "-//W3C//DTD SVG 1.1//EN"
 "http://www.w3.org/Graphics/SVG/1.1/DTD/svg11.dtd">
<!-- Generated by graphviz version 2.40.1 (20161225.0304)
 -->
<!-- Title: git_branch_merge Pages: 1 -->
<svg width="152pt" height="332pt"
 viewBox="0.00 0.00 151.50 332.00" xmlns="http://www.w3.org/2000/svg" xmlns:xlink="http://www.w3.org/1999/xlink">
<g id="graph0" class="graph" transform="scale(1 1) rotate(0) translate(4 328)">
<title>git_branch_merge</title>
<polygon fill="#ffffff" stroke="transparent" points="-4,4 -4,-328 147.5,-328 147.5,4 -4,4"/>
<!-- f -->
<g id="node1" class="node">
<title>f</title>
<ellipse fill="#adff2f" stroke="#adff2f" cx="32.5" cy="-234" rx="27" ry="18"/>
<text text-anchor="middle" x="32.5" y="-230.3" font-family="Times,serif" font-size="14.00" fill="#000000">f</text>
</g>
<!-- c -->
<g id="node2" class="node">
<title>c</title>
<ellipse fill="#adff2f" stroke="#adff2f" cx="32.5" cy="-162" rx="27" ry="18"/>
<text text-anchor="middle" x="32.5" y="-158.3" font-family="Times,serif" font-size="14.00" fill="#000000">c</text>
</g>
<!-- f&#45;&gt;c -->
<g id="edge1" class="edge">
<title>f&#45;&gt;c</title>
<path fill="none" stroke="#000000" d="M32.5,-215.8314C32.5,-208.131 32.5,-198.9743 32.5,-190.4166"/>
<polygon fill="#000000" stroke="#000000" points="36.0001,-190.4132 32.5,-180.4133 29.0001,-190.4133 36.0001,-190.4132"/>
</g>
<!-- d -->
<g id="node5" class="node">
<title>d</title>
<ellipse fill="#adff2f" stroke="#adff2f" cx="104.5" cy="-162" rx="27" ry="18"/>
<text text-anchor="middle" x="104.5" y="-158.3" font-family="Times,serif" font-size="14.00" fill="#000000">d</text>
</g>
<!-- f&#45;&gt;d -->
<g id="edge4" class="edge">
<title>f&#45;&gt;d</title>
<path fill="none" stroke="#000000" d="M47.7693,-218.7307C57.697,-208.803 70.8153,-195.6847 81.9363,-184.5637"/>
<polygon fill="#000000" stroke="#000000" points="84.6564,-186.7933 89.2527,-177.2473 79.7067,-181.8436 84.6564,-186.7933"/>
</g>
<!-- b -->
<g id="node3" class="node">
<title>b</title>
<ellipse fill="#adff2f" stroke="#adff2f" cx="40.5" cy="-90" rx="27" ry="18"/>
<text text-anchor="middle" x="40.5" y="-86.3" font-family="Times,serif" font-size="14.00" fill="#000000">b</text>
</g>
<!-- c&#45;&gt;b -->
<g id="edge2" class="edge">
<title>c&#45;&gt;b</title>
<path fill="none" stroke="#000000" d="M34.5187,-143.8314C35.3743,-136.131 36.3917,-126.9743 37.3426,-118.4166"/>
<polygon fill="#000000" stroke="#000000" points="40.8283,-118.7386 38.4541,-108.4133 33.8711,-117.9656 40.8283,-118.7386"/>
</g>
<!-- a -->
<g id="node4" class="node">
<title>a</title>
<ellipse fill="#adff2f" stroke="#adff2f" cx="67.5" cy="-18" rx="27" ry="18"/>
<text text-anchor="middle" x="67.5" y="-14.3" font-family="Times,serif" font-size="14.00" fill="#000000">a</text>
</g>
<!-- b&#45;&gt;a -->
<g id="edge3" class="edge">
<title>b&#45;&gt;a</title>
<path fill="none" stroke="#000000" d="M47.1742,-72.2022C50.2476,-64.0064 53.9616,-54.1024 57.3695,-45.0145"/>
<polygon fill="#000000" stroke="#000000" points="60.6685,-46.1853 60.9026,-35.593 54.1142,-43.7274 60.6685,-46.1853"/>
</g>
<!-- d&#45;&gt;a -->
<g id="edge5" class="edge">
<title>d&#45;&gt;a</title>
<path fill="none" stroke="#000000" d="M99.8887,-144.0535C93.574,-119.4774 82.1717,-75.1008 74.7195,-46.0974"/>
<polygon fill="#000000" stroke="#000000" points="78.0479,-44.9871 72.1694,-36.1727 71.2682,-46.7291 78.0479,-44.9871"/>
</g>
<!-- master -->
<g id="node6" class="node">
<title>master</title>
<polygon fill="#add8e6" stroke="#add8e6" points="65,-324 0,-324 0,-288 65,-288 65,-324"/>
<text text-anchor="middle" x="32.5" y="-302.3" font-family="Times,serif" font-size="14.00" fill="#000000">master</text>
</g>
<!-- master&#45;&gt;f -->
<g id="edge6" class="edge">
<title>master&#45;&gt;f</title>
<path fill="none" stroke="#000000" d="M32.5,-287.8314C32.5,-280.131 32.5,-270.9743 32.5,-262.4166"/>
<polygon fill="#000000" stroke="#000000" points="36.0001,-262.4132 32.5,-252.4133 29.0001,-262.4133 36.0001,-262.4132"/>
</g>
<!-- feature -->
<g id="node7" class="node">
<title>feature</title>
<polygon fill="#add8e6" stroke="#add8e6" points="143.5,-252 77.5,-252 77.5,-216 143.5,-216 143.5,-252"/>
<text text-anchor="middle" x="110.5" y="-230.3" font-family="Times,serif" font-size="14.00" fill="#000000">feature</text>
</g>
<!-- feature&#45;&gt;d -->
<g id="edge7" class="edge">
<title>feature&#45;&gt;d</title>
<path fill="none" stroke="#000000" d="M108.9859,-215.8314C108.3442,-208.131 107.5812,-198.9743 106.8681,-190.4166"/>
<polygon fill="#000000" stroke="#000000" points="110.3529,-190.088 106.0344,-180.4133 103.3771,-190.6694 110.3529,-190.088"/>
</g>
</g>
</svg>
