<?xml version="1.0" encoding="UTF-8" standalone="no"?>
<!DOCTYPE svg PUBLIC "-//W3C//DTD SVG 1.1//EN"
 "http://www.w3.org/Graphics/SVG/1.1/DTD/svg11.dtd">
<!-- Generated by graphviz version 2.40.1 (20161225.0304)
 -->
<!-- Title: git_branch Pages: 1 -->
<svg width="152pt" height="260pt"
 viewBox="0.00 0.00 151.50 260.00" xmlns="http://www.w3.org/2000/svg" xmlns:xlink="http://www.w3.org/1999/xlink">
<g id="graph0" class="graph" transform="scale(1 1) rotate(0) translate(4 256)">
<title>git_branch</title>
<polygon fill="#ffffff" stroke="transparent" points="-4,4 -4,-256 147.5,-256 147.5,4 -4,4"/>
<!-- master -->
<g id="node1" class="node">
<title>master</title>
<polygon fill="#add8e6" stroke="#add8e6" points="65,-252 0,-252 0,-216 65,-216 65,-252"/>
<text text-anchor="middle" x="32.5" y="-230.3" font-family="Times,serif" font-size="14.00" fill="#000000">master</text>
</g>
<!-- c -->
<g id="node2" class="node">
<title>c</title>
<ellipse fill="#adff2f" stroke="#adff2f" cx="32.5" cy="-162" rx="27" ry="18"/>
<text text-anchor="middle" x="32.5" y="-158.3" font-family="Times,serif" font-size="14.00" fill="#000000">c</text>
</g>
<!-- master&#45;&gt;c -->
<g id="edge1" class="edge">
<title>master&#45;&gt;c</title>
<path fill="none" stroke="#000000" d="M32.5,-215.8314C32.5,-208.131 32.5,-198.9743 32.5,-190.4166"/>
<polygon fill="#000000" stroke="#000000" points="36.0001,-190.4132 32.5,-180.4133 29.0001,-190.4133 36.0001,-190.4132"/>
</g>
<!-- b -->
<g id="node3" class="node">
<title>b</title>
<ellipse fill="#adff2f" stroke="#adff2f" cx="33.5" cy="-90" rx="27" ry="18"/>
<text text-anchor="middle" x="33.5" y="-86.3" font-family="Times,serif" font-size="14.00" fill="#000000">b</text>
</g>
<!-- c&#45;&gt;b -->
<g id="edge2" class="edge">
<title>c&#45;&gt;b</title>
<path fill="none" stroke="#000000" d="M32.7523,-143.8314C32.8593,-136.131 32.9865,-126.9743 33.1053,-118.4166"/>
<polygon fill="#000000" stroke="#000000" points="36.6049,-118.4609 33.2443,-108.4133 29.6056,-118.3637 36.6049,-118.4609"/>
</g>
<!-- a -->
<g id="node4" class="node">
<title>a</title>
<ellipse fill="#adff2f" stroke="#adff2f" cx="70.5" cy="-18" rx="27" ry="18"/>
<text text-anchor="middle" x="70.5" y="-14.3" font-family="Times,serif" font-size="14.00" fill="#000000">a</text>
</g>
<!-- b&#45;&gt;a -->
<g id="edge3" class="edge">
<title>b&#45;&gt;a</title>
<path fill="none" stroke="#000000" d="M42.2685,-72.937C46.6279,-64.4537 51.9953,-54.0092 56.8753,-44.513"/>
<polygon fill="#000000" stroke="#000000" points="60.0797,-45.9348 61.5374,-35.4407 53.8537,-42.7352 60.0797,-45.9348"/>
</g>
<!-- feature -->
<g id="node5" class="node">
<title>feature</title>
<polygon fill="#add8e6" stroke="#add8e6" points="143.5,-180 77.5,-180 77.5,-144 143.5,-144 143.5,-180"/>
<text text-anchor="middle" x="110.5" y="-158.3" font-family="Times,serif" font-size="14.00" fill="#000000">feature</text>
</g>
<!-- d -->
<g id="node6" class="node">
<title>d</title>
<ellipse fill="#adff2f" stroke="#adff2f" cx="108.5" cy="-90" rx="27" ry="18"/>
<text text-anchor="middle" x="108.5" y="-86.3" font-family="Times,serif" font-size="14.00" fill="#000000">d</text>
</g>
<!-- feature&#45;&gt;d -->
<g id="edge4" class="edge">
<title>feature&#45;&gt;d</title>
<path fill="none" stroke="#000000" d="M109.9953,-143.8314C109.7814,-136.131 109.5271,-126.9743 109.2894,-118.4166"/>
<polygon fill="#000000" stroke="#000000" points="112.7879,-118.3122 109.0115,-108.4133 105.7906,-118.5066 112.7879,-118.3122"/>
</g>
<!-- d&#45;&gt;a -->
<g id="edge5" class="edge">
<title>d&#45;&gt;a</title>
<path fill="none" stroke="#000000" d="M99.4945,-72.937C95.0172,-64.4537 89.5048,-54.0092 84.493,-44.513"/>
<polygon fill="#000000" stroke="#000000" points="87.4678,-42.6509 79.7048,-35.4407 81.2771,-45.9182 87.4678,-42.6509"/>
</g>
</g>
</svg>
